<svg width="19" height="716" viewBox="0 0 19 716" fill="none" xmlns="http://www.w3.org/2000/svg">
<rect x="7.42798" width="4" height="298" rx="2" fill="#2374A1" fill-opacity="0.12"/>
<path opacity="0.2" d="M17.928 406.569L1.12798 406.569L1.12798 400.281C1.12798 398.857 1.35998 397.633 1.82398 396.609C2.27198 395.585 2.92798 394.801 3.79198 394.257C4.63998 393.697 5.67198 393.417 6.88798 393.417C8.07198 393.417 9.09598 393.697 9.95998 394.257C10.808 394.801 11.464 395.585 11.928 396.609C12.392 397.633 12.624 398.857 12.624 400.281L12.624 405.585L11.784 404.793L17.928 404.793L17.928 406.569ZM11.928 404.793L11.064 405.585L11.064 400.329C11.064 398.649 10.704 397.377 9.98398 396.513C9.24798 395.633 8.21598 395.193 6.88798 395.193C5.54398 395.193 4.50398 395.633 3.76798 396.513C3.03198 397.377 2.66398 398.649 2.66398 400.329L2.66398 405.585L1.82398 404.793L11.928 404.793ZM18.048 384.871C18.048 386.087 17.776 387.183 17.232 388.159C16.672 389.119 15.912 389.879 14.952 390.439C13.976 390.999 12.864 391.279 11.616 391.279C10.352 391.279 9.23998 390.999 8.27998 390.439C7.31998 389.879 6.56798 389.119 6.02398 388.159C5.47998 387.199 5.20798 386.103 5.20798 384.871C5.20798 383.623 5.47998 382.519 6.02398 381.559C6.56798 380.583 7.31998 379.823 8.27998 379.279C9.23998 378.719 10.352 378.439 11.616 378.439C12.864 378.439 13.976 378.719 14.952 379.279C15.912 379.823 16.672 380.583 17.232 381.559C17.776 382.535 18.048 383.639 18.048 384.871ZM16.536 384.871C16.536 383.959 16.336 383.151 15.936 382.447C15.52 381.743 14.944 381.191 14.208 380.791C13.456 380.375 12.592 380.167 11.616 380.167C10.624 380.167 9.75998 380.375 9.02398 380.791C8.28798 381.191 7.71998 381.743 7.31998 382.447C6.90398 383.151 6.69598 383.951 6.69598 384.847C6.69598 385.743 6.90398 386.543 7.31998 387.247C7.71998 387.951 8.28798 388.511 9.02398 388.927C9.75998 389.343 10.624 389.551 11.616 389.551C12.592 389.551 13.456 389.343 14.208 388.927C14.944 388.511 15.52 387.951 15.936 387.247C16.336 386.543 16.536 385.751 16.536 384.871ZM17.928 374.96L5.32798 374.96L5.32798 373.328L8.75998 373.328L8.15998 373.496C7.19998 373.144 6.47198 372.552 5.97598 371.72C5.46398 370.888 5.20798 369.856 5.20798 368.624L6.86398 368.624C6.86398 368.688 6.86398 368.752 6.86398 368.816C6.84798 368.88 6.83998 368.944 6.83998 369.008C6.83998 370.336 7.24798 371.376 8.06398 372.128C8.86398 372.88 10.008 373.256 11.496 373.256L17.928 373.256L17.928 374.96ZM18.048 360.992C18.048 362.176 17.728 363.088 17.088 363.728C16.448 364.368 15.544 364.688 14.376 364.688L2.54398 364.688L2.54398 362.984L14.28 362.984C15.016 362.984 15.584 362.8 15.984 362.432C16.384 362.048 16.584 361.504 16.584 360.8C16.584 360.048 16.368 359.424 15.936 358.928L17.16 358.328C17.464 358.664 17.688 359.072 17.832 359.552C17.976 360.016 18.048 360.496 18.048 360.992ZM6.74398 366.944L5.32798 366.944L5.32798 359.144L6.74398 359.144L6.74398 366.944ZM17.928 354.938L3.74398 354.938C2.62398 354.938 1.71998 354.61 1.03197 353.954C0.343975 353.298 -2.49312e-05 352.354 -2.4985e-05 351.122C-2.5006e-05 350.642 0.0639751 350.178 0.191975 349.73C0.319976 349.282 0.519975 348.906 0.791975 348.602L2.06398 349.178C1.85598 349.418 1.70398 349.698 1.60798 350.018C1.49598 350.338 1.43998 350.682 1.43998 351.05C1.43998 351.77 1.63997 352.322 2.03997 352.706C2.43998 353.09 3.03198 353.282 3.81598 353.282L5.73598 353.282L6.52798 353.234L17.928 353.234L17.928 354.938ZM6.74398 357.194L5.32798 357.194L5.32798 349.394L6.74398 349.394L6.74398 357.194ZM18.048 342.168C18.048 343.384 17.776 344.48 17.232 345.456C16.672 346.416 15.912 347.176 14.952 347.736C13.976 348.296 12.864 348.576 11.616 348.576C10.352 348.576 9.23998 348.296 8.27998 347.736C7.31998 347.176 6.56798 346.416 6.02398 345.456C5.47997 344.496 5.20797 343.4 5.20797 342.168C5.20797 340.92 5.47997 339.816 6.02397 338.856C6.56797 337.88 7.31998 337.12 8.27998 336.576C9.23998 336.016 10.352 335.736 11.616 335.736C12.864 335.736 13.976 336.016 14.952 336.576C15.912 337.12 16.672 337.88 17.232 338.856C17.776 339.832 18.048 340.936 18.048 342.168ZM16.536 342.168C16.536 341.256 16.336 340.448 15.936 339.744C15.52 339.04 14.944 338.488 14.208 338.088C13.456 337.672 12.592 337.464 11.616 337.464C10.624 337.464 9.75997 337.672 9.02397 338.088C8.28797 338.488 7.71997 339.04 7.31997 339.744C6.90397 340.448 6.69597 341.248 6.69597 342.144C6.69597 343.04 6.90397 343.84 7.31997 344.544C7.71998 345.248 8.28798 345.808 9.02398 346.224C9.75998 346.64 10.624 346.848 11.616 346.848C12.592 346.848 13.456 346.64 14.208 346.224C14.944 345.808 15.52 345.248 15.936 344.544C16.336 343.84 16.536 343.048 16.536 342.168ZM17.928 332.257L0.119974 332.257L0.119974 330.553L17.928 330.553L17.928 332.257ZM17.928 325.811L5.32797 325.811L5.32797 324.107L17.928 324.107L17.928 325.811ZM2.54397 324.947C2.54397 325.299 2.42397 325.595 2.18397 325.835C1.94397 326.075 1.65597 326.195 1.31997 326.195C0.983974 326.195 0.703973 326.075 0.479973 325.835C0.239974 325.595 0.119974 325.299 0.119974 324.947C0.119974 324.595 0.231974 324.299 0.455974 324.059C0.679974 323.819 0.959974 323.699 1.29597 323.699C1.64797 323.699 1.94397 323.819 2.18397 324.059C2.42397 324.283 2.54397 324.579 2.54397 324.947ZM18.048 314.23C18.048 315.446 17.776 316.542 17.232 317.518C16.672 318.478 15.912 319.238 14.952 319.798C13.976 320.358 12.864 320.638 11.616 320.638C10.352 320.638 9.23997 320.358 8.27997 319.798C7.31997 319.238 6.56797 318.478 6.02397 317.518C5.47997 316.558 5.20797 315.462 5.20797 314.23C5.20797 312.982 5.47997 311.878 6.02397 310.918C6.56797 309.942 7.31997 309.182 8.27997 308.638C9.23997 308.078 10.352 307.798 11.616 307.798C12.864 307.798 13.976 308.078 14.952 308.638C15.912 309.182 16.672 309.942 17.232 310.918C17.776 311.894 18.048 312.998 18.048 314.23ZM16.536 314.23C16.536 313.318 16.336 312.51 15.936 311.806C15.52 311.102 14.944 310.55 14.208 310.15C13.456 309.734 12.592 309.526 11.616 309.526C10.624 309.526 9.75997 309.734 9.02397 310.15C8.28797 310.55 7.71997 311.102 7.31997 311.806C6.90397 312.51 6.69597 313.31 6.69597 314.206C6.69597 315.102 6.90397 315.902 7.31997 316.606C7.71997 317.31 8.28797 317.87 9.02397 318.286C9.75997 318.702 10.624 318.91 11.616 318.91C12.592 318.91 13.456 318.702 14.208 318.286C14.944 317.87 15.52 317.31 15.936 316.606C16.336 315.902 16.536 315.11 16.536 314.23Z" fill="#0E3F54"/>
<rect x="7.42798" y="418" width="4" height="298" rx="2" fill="#2374A1" fill-opacity="0.12"/>
</svg>
