<svg width="100" height="100" viewBox="0 0 100 100" fill="none" xmlns="http://www.w3.org/2000/svg">
<rect width="100" height="100" rx="20" fill="#F3F4F8"/>
<path fill-rule="evenodd" clip-rule="evenodd" d="M75 42.5C75 45.2604 72.7042 47.5 69.8708 47.5C67.4833 47.5 65.475 45.9062 64.9042 43.75H57.7458C56.4917 43.75 55.4229 44.6333 55.2167 45.8396L55.0062 47.0729C54.8093 48.2132 54.2197 49.2487 53.3396 50C54.1979 50.7375 54.8062 51.7583 55.0062 52.9271L55.2146 54.1604C55.3223 54.7517 55.6356 55.2858 56.0993 55.6683C56.5629 56.0507 57.1469 56.2568 57.7479 56.25H59.7792C60.3479 54.0938 62.3562 52.5 64.7458 52.5C67.5792 52.5 69.8729 54.7396 69.8729 57.5C69.8729 60.2604 67.575 62.5 64.7458 62.5C62.3562 62.5 60.35 60.9062 59.7792 58.75H57.7479C55.2396 58.75 53.1021 56.9833 52.6896 54.5729L52.4792 53.3396C52.3716 52.749 52.0588 52.2154 51.596 51.8331C51.1333 51.4507 50.5503 51.2442 49.95 51.25H47.8542C47.2125 53.3 45.2583 54.7917 42.9458 54.7917C40.6333 54.7917 38.6792 53.3 38.0396 51.25H35.0354C34.3937 53.3 32.4396 54.7917 30.1292 54.7917C27.2958 54.7917 25 52.5521 25 49.7917C25 47.0312 27.2958 44.7917 30.1292 44.7917C32.5937 44.7917 34.6542 46.4896 35.1458 48.75H37.9312C38.4229 46.4896 40.4833 44.7917 42.9479 44.7917C45.4146 44.7917 47.4729 46.4896 47.9646 48.75H49.9479C51.2 48.75 52.2708 47.8667 52.475 46.6604L52.6875 45.4271C53.1 43.0167 55.2396 41.25 57.7458 41.25H64.9042C65.475 39.0938 67.4833 37.5 69.8708 37.5C72.7042 37.5 75 39.7396 75 42.5ZM72.4375 42.5C72.4375 43.8812 71.2875 45 69.8708 45C68.4542 45 67.3083 43.8812 67.3083 42.5C67.3083 41.1187 68.4542 40 69.8708 40C71.2875 40 72.4354 41.1187 72.4354 42.5H72.4375ZM30.1271 52.2917C31.5437 52.2917 32.6896 51.1729 32.6896 49.7917C32.6896 48.4104 31.5437 47.2917 30.1271 47.2917C28.7104 47.2917 27.5625 48.4104 27.5625 49.7917C27.5625 51.1729 28.7104 52.2917 30.1271 52.2917ZM42.9458 52.2917C44.3625 52.2917 45.5104 51.1729 45.5104 49.7917C45.5104 48.4104 44.3646 47.2917 42.9479 47.2917C41.5312 47.2917 40.3833 48.4104 40.3833 49.7917C40.3833 51.1729 41.5292 52.2917 42.9458 52.2917ZM64.7417 60C66.1583 60 67.3042 58.8813 67.3042 57.5C67.3042 56.1187 66.1583 55 64.7417 55C63.325 55 62.1792 56.1187 62.1792 57.5C62.1792 58.8813 63.325 60 64.7417 60Z" fill="#B0B3BE"/>
</svg>
