<svg width="100" height="100" viewBox="0 0 100 100" fill="none" xmlns="http://www.w3.org/2000/svg">
<rect width="100" height="100" rx="20" fill="#F3F4F8"/>
<path fill-rule="evenodd" clip-rule="evenodd" d="M67.95 47.5734C64.4891 46.1 61.3422 43.9778 58.6792 41.3213C54.9706 37.6053 52.3248 32.964 51.0167 27.8796C50.9593 27.6538 50.8283 27.4536 50.6443 27.3105C50.4604 27.1675 50.234 27.0898 50.001 27.0898C49.768 27.0898 49.5417 27.1675 49.3578 27.3105C49.1738 27.4536 49.0428 27.6538 48.9854 27.8796C47.6745 32.9633 45.0283 37.6041 41.3208 41.3213C38.6576 43.9775 35.5107 46.0997 32.05 47.5734C30.6958 48.1567 29.3042 48.6255 27.8792 48.9859C27.652 49.0417 27.45 49.1721 27.3057 49.3562C27.1613 49.5403 27.0829 49.7675 27.0829 50.0015C27.0829 50.2355 27.1613 50.4627 27.3057 50.6468C27.45 50.8309 27.652 50.9613 27.8792 51.0171C29.3042 51.3755 30.6917 51.8442 32.05 52.4275C35.5109 53.9009 38.6578 56.0231 41.3208 58.6796C45.0304 62.396 47.677 67.0381 48.9854 72.1234C49.0412 72.3506 49.1716 72.5525 49.3558 72.6969C49.5399 72.8412 49.7671 72.9197 50.001 72.9197C50.235 72.9197 50.4622 72.8412 50.6463 72.6969C50.8305 72.5525 50.9608 72.3506 51.0167 72.1234C51.375 70.6963 51.8438 69.3088 52.4271 67.9505C53.9003 64.4895 56.0226 61.3426 58.6792 58.6796C62.3959 54.9709 67.0379 52.3251 72.1229 51.0171C72.3487 50.9597 72.549 50.8287 72.692 50.6448C72.835 50.4608 72.9127 50.2345 72.9127 50.0015C72.9127 49.7685 72.835 49.5421 72.692 49.3582C72.549 49.1743 72.3487 49.0433 72.1229 48.9859C70.6965 48.627 69.3011 48.1547 67.95 47.5734Z" fill="#B0B3BE"/>
</svg>
