<svg width="100" height="100" viewBox="0 0 100 100" fill="none" xmlns="http://www.w3.org/2000/svg">
<rect width="100" height="100" rx="20" fill="#F3F4F8"/>
<g clip-path="url(#clip0_2118_11381)">
<path d="M39.5605 33.4081L25.1293 62.1206C24.9866 62.4055 24.9629 62.7353 25.0633 63.0376C25.1637 63.34 25.38 63.5901 25.6647 63.7331L33.4418 67.6414C33.5828 67.7125 33.7364 67.755 33.8939 67.7667C34.0514 67.7783 34.2096 67.7588 34.3595 67.7093C34.5095 67.6597 34.6482 67.5812 34.7677 67.478C34.8873 67.3749 34.9854 67.2492 35.0563 67.1081L49.4855 38.3956C49.5565 38.2544 49.5989 38.1007 49.6104 37.9431C49.6219 37.7856 49.6022 37.6273 49.5525 37.4773C49.5027 37.3274 49.424 37.1887 49.3206 37.0692C49.2172 36.9497 49.0913 36.8518 48.9501 36.781L41.173 32.8748C41.0321 32.8036 40.8784 32.7609 40.721 32.7493C40.5635 32.7377 40.4053 32.7574 40.2554 32.8071C40.1055 32.8569 39.967 32.9358 39.8477 33.0393C39.7285 33.1428 39.6309 33.2688 39.5605 33.4102V33.4081Z" fill="#B0B3BE"/>
<path d="M65.0937 32.9844H73.7999C74.4624 32.9844 75.002 33.526 75.002 34.1865V66.3219C75.002 66.6409 74.8754 66.9468 74.6501 67.1726C74.4247 67.3984 74.1189 67.5255 73.7999 67.526H65.0937C64.7747 67.5255 64.4689 67.3984 64.2436 67.1726C64.0182 66.9468 63.8916 66.6409 63.8916 66.3219V34.1885C63.8916 33.526 64.4312 32.9844 65.0937 32.9844Z" fill="#B0B3BE"/>
<path d="M51.6979 33.5105L45.5208 64.8084C45.459 65.1206 45.5236 65.4446 45.7006 65.7091C45.8776 65.9736 46.1524 66.1569 46.4646 66.2188L54.9958 67.9397C55.65 68.0709 56.2875 67.648 56.4146 66.9938L62.5896 35.698C62.6509 35.3859 62.586 35.0622 62.4091 34.7978C62.2322 34.5335 61.9577 34.35 61.6458 34.2876L53.1125 32.5647C52.9573 32.5334 52.7976 32.5331 52.6423 32.5638C52.487 32.5945 52.3393 32.6555 52.2077 32.7434C52.0761 32.8312 51.9631 32.9442 51.8753 33.0759C51.7874 33.2075 51.7285 33.3552 51.6979 33.5105Z" fill="#B0B3BE"/>
</g>
<defs>
<clipPath id="clip0_2118_11381">
<rect width="50" height="50" fill="white" transform="translate(25 25)"/>
</clipPath>
</defs>
</svg>
