<svg width="120" height="120" viewBox="0 0 120 120" fill="none" xmlns="http://www.w3.org/2000/svg">
<rect width="120" height="120" rx="20" fill="#133040"/>
<g clip-path="url(#clip0_1003_12296)">
<path d="M47.4726 40.0903L30.1551 74.5453C29.9839 74.8871 29.9555 75.2829 30.0759 75.6458C30.1964 76.0086 30.456 76.3087 30.7976 76.4803L40.1301 81.1703C40.2994 81.2555 40.4837 81.3066 40.6727 81.3206C40.8617 81.3345 41.0515 81.3111 41.2315 81.2517C41.4114 81.1923 41.5778 81.098 41.7213 80.9742C41.8648 80.8504 41.9825 80.6996 42.0676 80.5303L59.3826 46.0753C59.4678 45.9059 59.5187 45.7214 59.5325 45.5323C59.5463 45.3433 59.5227 45.1533 59.463 44.9734C59.4033 44.7934 59.3088 44.627 59.1847 44.4836C59.0607 44.3403 58.9096 44.2227 58.7401 44.1378L49.4076 39.4503C49.2385 39.3649 49.0541 39.3137 48.8652 39.2998C48.6762 39.2859 48.4863 39.3094 48.3065 39.3691C48.1267 39.4288 47.9604 39.5235 47.8173 39.6477C47.6742 39.7719 47.5571 39.9232 47.4726 40.0928V40.0903Z" fill="#3C6881"/>
<path d="M78.1124 39.5801H88.5599C89.3549 39.5801 90.0024 40.2301 90.0024 41.0226V79.5851C90.0024 79.9679 89.8505 80.335 89.5801 80.606C89.3096 80.8769 88.9427 81.0294 88.5599 81.0301H78.1124C77.7296 81.0294 77.3627 80.8769 77.0923 80.606C76.8218 80.335 76.6699 79.9679 76.6699 79.5851V41.0251C76.6699 40.2301 77.3174 39.5801 78.1124 39.5801Z" fill="#3C6881"/>
<path d="M62.0375 40.2122L54.625 77.7697C54.5507 78.1443 54.6283 78.5331 54.8407 78.8505C55.0531 79.1679 55.3828 79.3879 55.7575 79.4622L65.995 81.5272C66.78 81.6847 67.545 81.1772 67.6975 80.3922L75.1075 42.8372C75.181 42.4627 75.1031 42.0742 74.8909 41.757C74.6786 41.4398 74.3492 41.2196 73.975 41.1447L63.735 39.0772C63.5488 39.0397 63.357 39.0394 63.1707 39.0762C62.9844 39.113 62.8072 39.1862 62.6492 39.2916C62.4913 39.3971 62.3557 39.5327 62.2503 39.6907C62.1449 39.8487 62.0742 40.0259 62.0375 40.2122Z" fill="#3C6881"/>
</g>
<defs>
<clipPath id="clip0_1003_12296">
<rect width="60" height="60" fill="white" transform="translate(30 30)"/>
</clipPath>
</defs>
</svg>
