<svg width="120" height="120" viewBox="0 0 120 120" fill="none" xmlns="http://www.w3.org/2000/svg">
<rect width="120" height="120" rx="20" fill="#133040"/>
<path fill-rule="evenodd" clip-rule="evenodd" d="M81.54 57.0871C77.3869 55.3191 73.6106 52.7724 70.415 49.5846C65.9647 45.1254 62.7897 39.5558 61.22 33.4546C61.1511 33.1836 60.9939 32.9433 60.7732 32.7717C60.5525 32.6 60.2808 32.5068 60.0012 32.5068C59.7216 32.5068 59.45 32.6 59.2293 32.7717C59.0086 32.9433 58.8514 33.1836 58.7825 33.4546C57.2094 39.555 54.0339 45.124 49.585 49.5846C46.3891 52.772 42.6129 55.3186 38.46 57.0871C36.835 57.7871 35.165 58.3496 33.455 58.7821C33.1824 58.8491 32.94 59.0055 32.7668 59.2265C32.5936 59.4474 32.4995 59.7201 32.4995 60.0008C32.4995 60.2816 32.5936 60.5542 32.7668 60.7752C32.94 60.9961 33.1824 61.1526 33.455 61.2196C35.165 61.6496 36.83 62.2121 38.46 62.9121C42.6131 64.6801 46.3894 67.2267 49.585 70.4146C54.0365 74.8742 57.2123 80.4447 58.7825 86.5471C58.8495 86.8197 59.006 87.062 59.2269 87.2352C59.4478 87.4085 59.7205 87.5026 60.0012 87.5026C60.282 87.5026 60.5546 87.4085 60.7756 87.2352C60.9965 87.062 61.153 86.8197 61.22 86.5471C61.65 84.8346 62.2125 83.1696 62.9125 81.5396C64.6804 77.3864 67.2271 73.6101 70.415 70.4146C74.875 65.9641 80.4454 62.7891 86.5475 61.2196C86.8185 61.1507 87.0588 60.9935 87.2304 60.7728C87.402 60.552 87.4952 60.2804 87.4952 60.0008C87.4952 59.7212 87.402 59.4496 87.2304 59.2289C87.0588 59.0082 86.8185 58.8509 86.5475 58.7821C84.8358 58.3514 83.1613 57.7846 81.54 57.0871Z" fill="#3C6881"/>
</svg>
