<svg width="120" height="120" viewBox="0 0 120 120" fill="none" xmlns="http://www.w3.org/2000/svg">
<rect width="120" height="120" rx="20" fill="#133040"/>
<path d="M85.7047 54.5527C86.3756 52.5324 86.6076 50.3922 86.3853 48.275C86.163 46.1579 85.4914 44.1126 84.4155 42.2757C82.8204 39.4993 80.3848 37.3011 77.4599 35.9981C74.535 34.6951 71.2719 34.3546 68.141 35.0257C66.3622 33.0471 64.0942 31.5714 61.5646 30.7467C59.0351 29.9221 56.333 29.7775 53.7299 30.3276C51.1268 30.8777 48.7143 32.1031 46.7346 33.8806C44.755 35.6582 43.2779 37.9254 42.4517 40.4544C40.3659 40.8822 38.3954 41.7502 36.6719 43.0004C34.9484 44.2507 33.5116 45.8544 32.4575 47.7044C30.8451 50.4762 30.1559 53.689 30.4897 56.8783C30.8235 60.0675 32.1629 63.068 34.3142 65.4459C33.6409 67.4653 33.4065 69.6051 33.6269 71.7223C33.8472 73.8395 34.5171 75.8853 35.5917 77.7227C37.1888 80.5001 39.6265 82.6988 42.5535 84.0018C45.4805 85.3048 48.7456 85.6449 51.8782 84.9729C53.2914 86.5643 55.0278 87.8359 56.9715 88.7028C58.9152 89.5697 61.0215 90.0119 63.1497 89.9999C66.3588 90.0029 69.4858 88.986 72.0794 87.0962C74.673 85.2063 76.5989 82.5411 77.5792 79.4854C79.6648 79.057 81.6351 78.1887 83.3585 76.9384C85.0819 75.6882 86.5188 74.0848 87.5735 72.2352C89.1668 69.4675 89.8441 66.2667 89.5085 63.0908C89.1728 59.9149 87.8414 56.9262 85.7047 54.5527ZM63.1497 86.0729C60.5215 86.0771 57.9757 85.1559 55.9587 83.4709L56.3135 83.2699L68.2592 76.3744C68.5566 76.2001 68.8034 75.9514 68.9755 75.6527C69.1476 75.3541 69.2391 75.0159 69.241 74.6712V57.8289L74.291 60.7504C74.3159 60.7631 74.3376 60.7815 74.3541 60.804C74.3706 60.8266 74.3815 60.8528 74.386 60.8804V74.8369C74.3796 77.815 73.1938 80.6693 71.0879 82.7751C68.9821 84.8809 66.1278 86.0667 63.1497 86.0729ZM38.998 75.7594C37.6799 73.4835 37.2067 70.8156 37.6615 68.2252L38.0165 68.4382L49.974 75.3337C50.2699 75.5073 50.6067 75.5988 50.9497 75.5988C51.2928 75.5988 51.6296 75.5073 51.9255 75.3337L66.5325 66.9124V72.7434C66.5311 72.7737 66.5229 72.8032 66.5086 72.8298C66.4942 72.8564 66.474 72.8795 66.4495 72.8972L54.35 79.8754C51.7678 81.363 48.7009 81.765 45.8225 80.9933C42.9442 80.2216 40.4897 78.3392 38.998 75.7594ZM35.852 49.7389C37.1792 47.4484 39.2741 45.7013 41.7657 44.8069V58.9999C41.7612 59.3428 41.8489 59.6806 42.0194 59.9781C42.19 60.2756 42.4373 60.5219 42.7355 60.6912L57.2715 69.0769L52.2212 71.9982C52.1939 72.0127 52.1634 72.0203 52.1325 72.0203C52.1015 72.0203 52.0711 72.0127 52.0437 71.9982L39.968 65.0319C37.3906 63.538 35.5104 61.0835 34.7389 58.2061C33.9674 55.3287 34.3677 52.2629 35.852 49.6799V49.7389ZM77.3427 59.3784L62.7595 50.9099L67.798 47.9999C67.8253 47.9854 67.8558 47.9778 67.8867 47.9778C67.9177 47.9778 67.9482 47.9854 67.9755 47.9999L80.0512 54.9782C81.8976 56.0436 83.4028 57.6122 84.3911 59.501C85.3795 61.3897 85.8101 63.5206 85.6328 65.6449C85.4554 67.7693 84.6775 69.7993 83.3897 71.498C82.1019 73.1968 80.3574 74.4942 78.36 75.2387V61.0457C78.3495 60.7034 78.2502 60.3697 78.0718 60.0773C77.8934 59.785 77.6424 59.5443 77.3427 59.3784ZM82.3695 51.8207L82.0145 51.6077L70.0807 44.6532C69.7831 44.4785 69.4441 44.3864 69.099 44.3864C68.7538 44.3864 68.4149 44.4785 68.1172 44.6532L53.5225 53.0742V47.2434C53.5194 47.2138 53.5243 47.1839 53.5368 47.1568C53.5493 47.1297 53.5689 47.1065 53.5935 47.0897L65.6692 40.1232C67.52 39.057 69.6361 38.5398 71.7701 38.6321C73.904 38.7244 75.9675 39.4224 77.7193 40.6444C79.4711 41.8664 80.8388 43.562 81.6623 45.5328C82.4858 47.5035 82.7312 49.6681 82.3697 51.7732L82.3695 51.8207ZM50.7662 62.1574L45.7162 59.2479C45.691 59.2327 45.6694 59.2121 45.6529 59.1876C45.6365 59.1631 45.6257 59.1353 45.6212 59.1062V45.1854C45.624 43.0499 46.2347 40.9592 47.3819 39.1579C48.529 37.3566 50.1653 35.9192 52.0993 35.0135C54.0334 34.1079 56.1853 33.7716 58.3034 34.0439C60.4215 34.3162 62.4184 35.1858 64.0605 36.5512L63.7055 36.7524L51.76 43.6474C51.4627 43.8218 51.2158 44.0705 51.0437 44.3691C50.8716 44.6678 50.7801 45.006 50.7782 45.3507L50.7662 62.1574ZM53.5102 56.2439L60.0152 52.4944L66.5325 56.2439V63.7424L60.039 67.4917L53.5222 63.7424L53.5102 56.2439Z" fill="#3C6881"/>
</svg>
