<svg width="120" height="120" viewBox="0 0 120 120" fill="none" xmlns="http://www.w3.org/2000/svg">
<rect width="120" height="120" rx="20" fill="#133040"/>
<path fill-rule="evenodd" clip-rule="evenodd" d="M90 51C90 54.3125 87.245 57 83.845 57C80.98 57 78.57 55.0875 77.885 52.5H69.295C67.79 52.5 66.5075 53.56 66.26 55.0075L66.0075 56.4875C65.7711 57.8558 65.0636 59.0984 64.0075 60C65.0375 60.885 65.7675 62.11 66.0075 63.5125L66.2575 64.9925C66.3867 65.7021 66.7628 66.343 67.3192 66.8019C67.8755 67.2608 68.5763 67.5081 69.2975 67.5H71.735C72.4175 64.9125 74.8275 63 77.695 63C81.095 63 83.8475 65.6875 83.8475 69C83.8475 72.3125 81.09 75 77.695 75C74.8275 75 72.42 73.0875 71.735 70.5H69.2975C66.2875 70.5 63.7225 68.38 63.2275 65.4875L62.975 64.0075C62.8459 63.2988 62.4706 62.6585 61.9153 62.1997C61.3599 61.7409 60.6603 61.4931 59.94 61.5H57.425C56.655 63.96 54.31 65.75 51.535 65.75C48.76 65.75 46.415 63.96 45.6475 61.5H42.0425C41.2725 63.96 38.9275 65.75 36.155 65.75C32.755 65.75 30 63.0625 30 59.75C30 56.4375 32.755 53.75 36.155 53.75C39.1125 53.75 41.585 55.7875 42.175 58.5H45.5175C46.1075 55.7875 48.58 53.75 51.5375 53.75C54.4975 53.75 56.9675 55.7875 57.5575 58.5H59.9375C61.44 58.5 62.725 57.44 62.97 55.9925L63.225 54.5125C63.72 51.62 66.2875 49.5 69.295 49.5H77.885C78.57 46.9125 80.98 45 83.845 45C87.245 45 90 47.6875 90 51ZM86.925 51C86.925 52.6575 85.545 54 83.845 54C82.145 54 80.77 52.6575 80.77 51C80.77 49.3425 82.145 48 83.845 48C85.545 48 86.9225 49.3425 86.9225 51H86.925ZM36.1525 62.75C37.8525 62.75 39.2275 61.4075 39.2275 59.75C39.2275 58.0925 37.8525 56.75 36.1525 56.75C34.4525 56.75 33.075 58.0925 33.075 59.75C33.075 61.4075 34.4525 62.75 36.1525 62.75ZM51.535 62.75C53.235 62.75 54.6125 61.4075 54.6125 59.75C54.6125 58.0925 53.2375 56.75 51.5375 56.75C49.8375 56.75 48.46 58.0925 48.46 59.75C48.46 61.4075 49.835 62.75 51.535 62.75ZM77.69 72C79.39 72 80.765 70.6575 80.765 69C80.765 67.3425 79.39 66 77.69 66C75.99 66 74.615 67.3425 74.615 69C74.615 70.6575 75.99 72 77.69 72Z" fill="#3C6881"/>
</svg>
