<svg width="709" height="560" viewBox="0 0 709 560" fill="none" xmlns="http://www.w3.org/2000/svg">
<path d="M1.5 73.5V524.5C1.5 543.278 16.7223 558.5 35.5 558.5H161.252C180.03 558.5 195.252 543.278 195.252 524.5V508C195.252 489.222 210.474 474 229.252 474H320H501.512C520.29 474 535.512 489.222 535.512 508V524.5C535.512 543.278 550.734 558.5 569.512 558.5H673.5C692.278 558.5 707.5 543.278 707.5 524.5V35.5C707.5 16.7223 692.278 1.5 673.5 1.5H570.913C555.173 1.5 542.413 14.2599 542.413 30C542.413 45.7401 529.653 58.5 513.913 58.5H423.508" stroke="#E8E9EC" stroke-width="3" stroke-dasharray="11 11"/>
</svg>
